<mxfile host="app.diagrams.net" modified="2022-08-02T19:30:06.015Z" agent="5.0 (Windows NT 10.0; Win64; x64) AppleWebKit/537.36 (KHTML, like Gecko) Chrome/103.0.0.0 Safari/537.36" etag="6aA0nt4iVKRHXM3JgIN9" version="20.2.2" type="github">
  <diagram id="aBpOqQjViuhJbt1D7Wys" name="Page-1">
    <mxGraphModel dx="1422" dy="762" grid="1" gridSize="10" guides="1" tooltips="1" connect="1" arrows="1" fold="1" page="1" pageScale="1" pageWidth="850" pageHeight="1100" math="0" shadow="0">
      <root>
        <mxCell id="0" />
        <mxCell id="1" parent="0" />
        <mxCell id="OsobQluGWlxwmB4qPxls-1" value="" style="rounded=0;html=1;jettySize=auto;orthogonalLoop=1;fontSize=11;endArrow=block;endFill=0;endSize=8;strokeWidth=1;shadow=0;labelBackgroundColor=none;edgeStyle=orthogonalEdgeStyle;entryX=0.5;entryY=0;entryDx=0;entryDy=0;" edge="1" parent="1" source="OsobQluGWlxwmB4qPxls-2" target="OsobQluGWlxwmB4qPxls-7">
          <mxGeometry relative="1" as="geometry" />
        </mxCell>
        <mxCell id="OsobQluGWlxwmB4qPxls-2" value="Load file into Raw Staging" style="rounded=1;whiteSpace=wrap;html=1;fontSize=12;glass=0;strokeWidth=1;shadow=0;" vertex="1" parent="1">
          <mxGeometry x="180" y="20" width="120" height="40" as="geometry" />
        </mxCell>
        <mxCell id="OsobQluGWlxwmB4qPxls-3" value="Failures&amp;nbsp;&lt;br&gt;" style="edgeStyle=orthogonalEdgeStyle;rounded=0;orthogonalLoop=1;jettySize=auto;html=1;exitX=1;exitY=0.5;exitDx=0;exitDy=0;entryX=0;entryY=0.5;entryDx=0;entryDy=0;" edge="1" parent="1" source="OsobQluGWlxwmB4qPxls-5" target="OsobQluGWlxwmB4qPxls-22">
          <mxGeometry relative="1" as="geometry" />
        </mxCell>
        <mxCell id="OsobQluGWlxwmB4qPxls-4" value="Success" style="edgeStyle=orthogonalEdgeStyle;rounded=0;orthogonalLoop=1;jettySize=auto;html=1;exitX=0.5;exitY=1;exitDx=0;exitDy=0;entryX=0.5;entryY=0;entryDx=0;entryDy=0;" edge="1" parent="1" source="OsobQluGWlxwmB4qPxls-5" target="OsobQluGWlxwmB4qPxls-29">
          <mxGeometry relative="1" as="geometry" />
        </mxCell>
        <mxCell id="OsobQluGWlxwmB4qPxls-5" value="Perform Validation" style="rhombus;whiteSpace=wrap;html=1;shadow=0;fontFamily=Helvetica;fontSize=12;align=center;strokeWidth=1;spacing=6;spacingTop=-4;" vertex="1" parent="1">
          <mxGeometry x="190" y="540" width="100" height="80" as="geometry" />
        </mxCell>
        <mxCell id="OsobQluGWlxwmB4qPxls-6" style="edgeStyle=orthogonalEdgeStyle;rounded=0;orthogonalLoop=1;jettySize=auto;html=1;" edge="1" parent="1" source="OsobQluGWlxwmB4qPxls-7" target="OsobQluGWlxwmB4qPxls-10">
          <mxGeometry relative="1" as="geometry" />
        </mxCell>
        <mxCell id="OsobQluGWlxwmB4qPxls-7" value="Parse Raw Staged Data into Staging Table" style="rounded=1;whiteSpace=wrap;html=1;fontSize=12;glass=0;strokeWidth=1;shadow=0;" vertex="1" parent="1">
          <mxGeometry x="180" y="90" width="120" height="50" as="geometry" />
        </mxCell>
        <mxCell id="OsobQluGWlxwmB4qPxls-8" value="Success" style="edgeStyle=orthogonalEdgeStyle;rounded=0;orthogonalLoop=1;jettySize=auto;html=1;" edge="1" parent="1" source="OsobQluGWlxwmB4qPxls-10" target="OsobQluGWlxwmB4qPxls-5">
          <mxGeometry relative="1" as="geometry" />
        </mxCell>
        <mxCell id="OsobQluGWlxwmB4qPxls-9" value="Failure&lt;br&gt;" style="edgeStyle=orthogonalEdgeStyle;rounded=0;orthogonalLoop=1;jettySize=auto;html=1;entryX=0;entryY=0.5;entryDx=0;entryDy=0;" edge="1" parent="1" source="OsobQluGWlxwmB4qPxls-10" target="OsobQluGWlxwmB4qPxls-15">
          <mxGeometry relative="1" as="geometry" />
        </mxCell>
        <mxCell id="OsobQluGWlxwmB4qPxls-10" value="Staged File Prechecks" style="swimlane;" vertex="1" parent="1">
          <mxGeometry x="140" y="160" width="200" height="330" as="geometry" />
        </mxCell>
        <mxCell id="OsobQluGWlxwmB4qPxls-11" value="Line Count = Footer" style="rounded=1;whiteSpace=wrap;html=1;fontSize=12;glass=0;strokeWidth=1;shadow=0;" vertex="1" parent="OsobQluGWlxwmB4qPxls-10">
          <mxGeometry x="40" y="40" width="120" height="40" as="geometry" />
        </mxCell>
        <mxCell id="OsobQluGWlxwmB4qPxls-12" value="Required Fields" style="rounded=1;whiteSpace=wrap;html=1;fontSize=12;glass=0;strokeWidth=1;shadow=0;" vertex="1" parent="OsobQluGWlxwmB4qPxls-10">
          <mxGeometry x="40" y="98" width="120" height="40" as="geometry" />
        </mxCell>
        <mxCell id="OsobQluGWlxwmB4qPxls-13" value="&lt;b&gt;AMDP&lt;/b&gt;" style="text;html=1;strokeColor=none;fillColor=none;align=center;verticalAlign=middle;whiteSpace=wrap;rounded=0;" vertex="1" parent="OsobQluGWlxwmB4qPxls-10">
          <mxGeometry x="-10" y="40" width="60" height="30" as="geometry" />
        </mxCell>
        <mxCell id="OsobQluGWlxwmB4qPxls-14" value="&lt;b&gt;AMDP&lt;/b&gt;" style="text;html=1;strokeColor=none;fillColor=none;align=center;verticalAlign=middle;whiteSpace=wrap;rounded=0;" vertex="1" parent="OsobQluGWlxwmB4qPxls-10">
          <mxGeometry x="-10" y="98" width="60" height="30" as="geometry" />
        </mxCell>
        <mxCell id="OsobQluGWlxwmB4qPxls-15" value="Precheck Failure Processing" style="swimlane;" vertex="1" parent="1">
          <mxGeometry x="410" y="225" width="200" height="200" as="geometry" />
        </mxCell>
        <mxCell id="OsobQluGWlxwmB4qPxls-16" value="Move to Failure" style="rounded=1;whiteSpace=wrap;html=1;fontSize=12;glass=0;strokeWidth=1;shadow=0;" vertex="1" parent="OsobQluGWlxwmB4qPxls-15">
          <mxGeometry x="48" y="33" width="120" height="40" as="geometry" />
        </mxCell>
        <mxCell id="OsobQluGWlxwmB4qPxls-17" value="Move to Archive" style="rounded=1;whiteSpace=wrap;html=1;fontSize=12;glass=0;strokeWidth=1;shadow=0;" vertex="1" parent="OsobQluGWlxwmB4qPxls-15">
          <mxGeometry x="48" y="90" width="120" height="40" as="geometry" />
        </mxCell>
        <mxCell id="OsobQluGWlxwmB4qPxls-18" value="Throw System Message" style="rounded=1;whiteSpace=wrap;html=1;fontSize=12;glass=0;strokeWidth=1;shadow=0;" vertex="1" parent="OsobQluGWlxwmB4qPxls-15">
          <mxGeometry x="48" y="145" width="120" height="40" as="geometry" />
        </mxCell>
        <mxCell id="OsobQluGWlxwmB4qPxls-19" value="&lt;b&gt;ABAP&lt;/b&gt;" style="text;html=1;strokeColor=none;fillColor=none;align=center;verticalAlign=middle;whiteSpace=wrap;rounded=0;" vertex="1" parent="OsobQluGWlxwmB4qPxls-15">
          <mxGeometry x="-10" y="33" width="60" height="30" as="geometry" />
        </mxCell>
        <mxCell id="OsobQluGWlxwmB4qPxls-20" value="&lt;b&gt;ABAP&lt;/b&gt;" style="text;html=1;strokeColor=none;fillColor=none;align=center;verticalAlign=middle;whiteSpace=wrap;rounded=0;" vertex="1" parent="OsobQluGWlxwmB4qPxls-15">
          <mxGeometry x="-10" y="90" width="60" height="30" as="geometry" />
        </mxCell>
        <mxCell id="OsobQluGWlxwmB4qPxls-21" value="&lt;b&gt;ABAP&lt;/b&gt;" style="text;html=1;strokeColor=none;fillColor=none;align=center;verticalAlign=middle;whiteSpace=wrap;rounded=0;" vertex="1" parent="OsobQluGWlxwmB4qPxls-15">
          <mxGeometry x="-10" y="145" width="60" height="30" as="geometry" />
        </mxCell>
        <mxCell id="OsobQluGWlxwmB4qPxls-22" value="Validation Errors" style="swimlane;" vertex="1" parent="1">
          <mxGeometry x="400" y="453" width="230" height="258" as="geometry" />
        </mxCell>
        <mxCell id="OsobQluGWlxwmB4qPxls-23" value="Update Error Table" style="rounded=1;whiteSpace=wrap;html=1;fontSize=12;glass=0;strokeWidth=1;shadow=0;" vertex="1" parent="OsobQluGWlxwmB4qPxls-22">
          <mxGeometry x="40" y="30" width="180" height="40" as="geometry" />
        </mxCell>
        <mxCell id="OsobQluGWlxwmB4qPxls-24" value="&lt;b&gt;AMDP&lt;/b&gt;" style="text;html=1;strokeColor=none;fillColor=none;align=center;verticalAlign=middle;whiteSpace=wrap;rounded=0;" vertex="1" parent="OsobQluGWlxwmB4qPxls-22">
          <mxGeometry x="-10" y="28" width="60" height="30" as="geometry" />
        </mxCell>
        <mxCell id="OsobQluGWlxwmB4qPxls-25" value="Update Interface Table" style="rounded=1;whiteSpace=wrap;html=1;fontSize=12;glass=0;strokeWidth=1;shadow=0;" vertex="1" parent="OsobQluGWlxwmB4qPxls-22">
          <mxGeometry x="40" y="128" width="180" height="40" as="geometry" />
        </mxCell>
        <mxCell id="OsobQluGWlxwmB4qPxls-26" value="Initiate Error Workflow" style="rounded=1;whiteSpace=wrap;html=1;fontSize=12;glass=0;strokeWidth=1;shadow=0;" vertex="1" parent="OsobQluGWlxwmB4qPxls-22">
          <mxGeometry x="40" y="178" width="180" height="40" as="geometry" />
        </mxCell>
        <mxCell id="OsobQluGWlxwmB4qPxls-27" value="&lt;b&gt;ABAP&lt;/b&gt;" style="text;html=1;strokeColor=none;fillColor=none;align=center;verticalAlign=middle;whiteSpace=wrap;rounded=0;" vertex="1" parent="OsobQluGWlxwmB4qPxls-22">
          <mxGeometry x="-10" y="178" width="60" height="30" as="geometry" />
        </mxCell>
        <mxCell id="OsobQluGWlxwmB4qPxls-28" value="&lt;b&gt;AMDP&lt;/b&gt;" style="text;html=1;strokeColor=none;fillColor=none;align=center;verticalAlign=middle;whiteSpace=wrap;rounded=0;" vertex="1" parent="OsobQluGWlxwmB4qPxls-22">
          <mxGeometry x="-10" y="128" width="60" height="30" as="geometry" />
        </mxCell>
        <mxCell id="OsobQluGWlxwmB4qPxls-29" value="Successful Rows" style="swimlane;" vertex="1" parent="1">
          <mxGeometry x="125" y="700" width="230" height="260" as="geometry" />
        </mxCell>
        <mxCell id="OsobQluGWlxwmB4qPxls-30" value="Update Interface Table" style="rounded=1;whiteSpace=wrap;html=1;fontSize=12;glass=0;strokeWidth=1;shadow=0;" vertex="1" parent="OsobQluGWlxwmB4qPxls-29">
          <mxGeometry x="44" y="30" width="180" height="40" as="geometry" />
        </mxCell>
        <mxCell id="OsobQluGWlxwmB4qPxls-31" value="Move File to Success?&amp;nbsp;" style="rounded=1;whiteSpace=wrap;html=1;fontSize=12;glass=0;strokeWidth=1;shadow=0;" vertex="1" parent="OsobQluGWlxwmB4qPxls-29">
          <mxGeometry x="44" y="80" width="180" height="40" as="geometry" />
        </mxCell>
        <mxCell id="OsobQluGWlxwmB4qPxls-32" value="Issue Output to FPSL" style="rounded=1;whiteSpace=wrap;html=1;fontSize=12;glass=0;strokeWidth=1;shadow=0;" vertex="1" parent="OsobQluGWlxwmB4qPxls-29">
          <mxGeometry x="44" y="130" width="180" height="40" as="geometry" />
        </mxCell>
        <mxCell id="OsobQluGWlxwmB4qPxls-33" value="&lt;b&gt;AMDP&lt;/b&gt;" style="text;html=1;strokeColor=none;fillColor=none;align=center;verticalAlign=middle;whiteSpace=wrap;rounded=0;" vertex="1" parent="OsobQluGWlxwmB4qPxls-29">
          <mxGeometry x="-10" y="30" width="60" height="30" as="geometry" />
        </mxCell>
        <mxCell id="OsobQluGWlxwmB4qPxls-34" value="&lt;b&gt;ABAP&lt;/b&gt;" style="text;html=1;strokeColor=none;fillColor=none;align=center;verticalAlign=middle;whiteSpace=wrap;rounded=0;" vertex="1" parent="OsobQluGWlxwmB4qPxls-29">
          <mxGeometry x="-10" y="80" width="60" height="30" as="geometry" />
        </mxCell>
        <mxCell id="OsobQluGWlxwmB4qPxls-35" value="&lt;b&gt;AMDP&lt;/b&gt;" style="text;html=1;strokeColor=none;fillColor=none;align=center;verticalAlign=middle;whiteSpace=wrap;rounded=0;" vertex="1" parent="1">
          <mxGeometry x="130" y="80" width="60" height="30" as="geometry" />
        </mxCell>
        <mxCell id="OsobQluGWlxwmB4qPxls-36" value="&lt;b&gt;AMDP&lt;/b&gt;" style="text;html=1;strokeColor=none;fillColor=none;align=center;verticalAlign=middle;whiteSpace=wrap;rounded=0;" vertex="1" parent="1">
          <mxGeometry x="170" y="540" width="60" height="30" as="geometry" />
        </mxCell>
        <mxCell id="OsobQluGWlxwmB4qPxls-37" value="&lt;b&gt;AMDP - ABAP Managed Database Procedure&lt;/b&gt;" style="text;html=1;strokeColor=none;fillColor=none;align=center;verticalAlign=middle;whiteSpace=wrap;rounded=0;" vertex="1" parent="1">
          <mxGeometry x="360" y="50" width="350" height="30" as="geometry" />
        </mxCell>
        <mxCell id="OsobQluGWlxwmB4qPxls-38" value="&lt;b&gt;ABAP&lt;/b&gt;" style="text;html=1;strokeColor=none;fillColor=none;align=center;verticalAlign=middle;whiteSpace=wrap;rounded=0;" vertex="1" parent="1">
          <mxGeometry x="130" y="10" width="60" height="30" as="geometry" />
        </mxCell>
        <mxCell id="OsobQluGWlxwmB4qPxls-39" value="&lt;b&gt;ABAP - Application Layer Processing&lt;/b&gt;" style="text;html=1;strokeColor=none;fillColor=none;align=center;verticalAlign=middle;whiteSpace=wrap;rounded=0;" vertex="1" parent="1">
          <mxGeometry x="366.5" y="80" width="297" height="30" as="geometry" />
        </mxCell>
      </root>
    </mxGraphModel>
  </diagram>
</mxfile>
